<svg version="1.1" id="Layer_1" xmlns="http://www.w3.org/2000/svg" xmlns:xlink="http://www.w3.org/1999/xlink" x="0px" y="0px"
	 width="100%" viewBox="0 0 192 192" enable-background="new 0 0 192 192" xml:space="preserve">
<path fill="#010101" opacity="1.000000" stroke="none" 
	d="
M130.000000,193.000000 
	C87.860474,193.000000 46.220886,192.972168 4.581558,193.063217 
	C1.833932,193.069214 0.892316,192.804092 0.899400,189.585754 
	C1.035415,127.792999 1.025910,65.999817 0.917592,4.206951 
	C0.912581,1.348372 1.604161,0.924917 4.289065,0.928920 
	C66.081985,1.021048 127.875099,1.018518 189.668045,0.935410 
	C192.264038,0.931919 193.093246,1.213303 193.087723,4.164063 
	C192.971634,66.123459 192.979797,128.083160 193.070572,190.042633 
	C193.074387,192.641525 192.360916,193.070251 189.960861,193.057877 
	C170.141006,192.955551 150.320389,193.000000 130.000000,193.000000 
z"/>
<path fill="#FCFCFC" opacity="1.000000" stroke="none" 
	d="
M52.959427,145.158035 
	C42.110058,145.236832 31.915707,143.776733 21.739492,142.003754 
	C18.616116,141.459595 17.550625,140.156097 18.256517,137.001968 
	C19.199385,132.788956 19.945698,128.520737 20.529373,124.242531 
	C20.913002,121.430641 22.041269,120.961563 24.821390,121.336159 
	C35.041832,122.713280 45.309814,123.744751 55.633335,124.060600 
	C58.771015,124.156601 61.736832,124.158440 62.425835,120.039551 
	C63.072449,116.174072 61.153088,114.143105 57.796967,112.901268 
	C50.638084,110.252342 43.415054,107.752121 36.368313,104.829315 
	C13.710749,95.431534 15.644189,68.633026 27.553566,55.462723 
	C30.041149,52.711758 33.644005,52.046131 36.986923,51.268768 
	C51.840469,47.814751 66.722382,48.683521 81.598396,51.338776 
	C84.852058,51.919529 86.005508,53.307926 85.205063,56.714764 
	C84.257027,60.749821 83.626656,64.893768 83.287277,69.025726 
	C83.055031,71.853371 81.682533,72.104134 79.390808,71.976471 
	C70.582153,71.485756 61.768745,71.054428 52.951847,70.756607 
	C50.822624,70.684677 47.994480,69.734253 47.250278,73.122292 
	C46.559383,76.267662 47.725754,78.621613 50.546524,80.218201 
	C55.073483,82.780510 60.184155,83.801491 64.944626,85.747551 
	C68.169510,87.065857 71.506248,88.113533 74.716957,89.463066 
	C92.744637,97.040520 97.282211,122.912407 82.854355,136.170715 
	C76.138374,142.342285 67.631912,143.995956 58.937172,144.924774 
	C57.120544,145.118820 55.279015,145.079697 52.959427,145.158035 
z"/>
<path fill="#FCFCFC" opacity="1.000000" stroke="none" 
	d="
M132.143814,76.347054 
	C134.448898,80.837494 138.697357,81.708534 142.536652,83.166740 
	C147.814636,85.171402 153.212799,86.873520 158.432800,89.014191 
	C171.808533,94.499420 177.320938,104.086311 175.997604,119.133186 
	C174.939499,131.164047 166.797729,140.162872 154.050934,143.199020 
	C137.744980,147.082886 121.610077,144.667419 105.506836,141.684540 
	C103.939041,141.394119 102.707245,140.863663 103.097076,138.760056 
	C104.006203,133.854187 104.857529,128.933701 105.555397,123.994164 
	C105.927795,121.358376 107.123535,120.985100 109.615036,121.315201 
	C120.015038,122.693047 130.452713,123.758041 140.953690,124.069855 
	C143.991699,124.160065 146.621384,123.960396 147.300735,120.144661 
	C147.936264,116.574989 146.496750,114.330276 143.288940,113.107018 
	C135.996826,110.326263 128.597504,107.811455 121.383469,104.844055 
	C98.336929,95.364159 100.894417,68.046112 112.549110,55.470520 
	C114.973083,52.855015 118.327286,52.178089 121.505089,51.409039 
	C136.523666,47.774437 151.576477,48.672291 166.630554,51.365570 
	C169.659286,51.907433 171.016037,53.194435 170.223129,56.400776 
	C169.746826,58.326790 169.719055,60.359013 169.343750,62.315506 
	C167.420517,72.341751 167.409958,72.249023 157.014374,71.551659 
	C150.366669,71.105713 143.691238,71.078918 137.041229,70.658592 
	C133.024429,70.404701 131.495956,72.096512 132.143814,76.347054 
z"/>
</svg>